<svg width="26" height="16" viewBox="0 0 26 16" fill="none" xmlns="http://www.w3.org/2000/svg">
<path d="M20.605 6.74497C20.605 6.35347 20.75 5.96197 20.75 5.43997C20.75 2.56897 18.14 0.219971 14.95 0.219971C12.63 0.219971 10.745 1.39447 9.73001 3.09097C9.44001 2.96047 8.86001 2.82997 8.42501 2.82997C6.39501 2.82997 4.80001 4.26547 4.80001 6.09247C4.80001 6.35347 4.80001 6.61447 4.94501 6.74497C2.33501 7.13647 0.450012 8.96347 0.450012 11.3125C0.450012 13.792 2.77001 15.88 5.52501 15.88H20.025C22.78 15.88 25.1 13.792 25.1 11.3125C25.1 8.96347 23.215 7.00597 20.605 6.74497Z" fill="white"/>
</svg>
